HIERARCHY
ROOT Model_Hips
{
	OFFSET 0.000000 96.915077 0.000000
	CHANNELS 6 Xposition Yposition Zposition Xrotation Yrotation Zrotation
	JOINT Model_Spine
	{
		OFFSET 0.000000 11.137703 -1.289900
		CHANNELS 3 Xrotation Yrotation Zrotation
		JOINT Model_Spine1
		{
			OFFSET 0.000000 12.993942 -1.504922
			CHANNELS 3 Xrotation Yrotation Zrotation
			JOINT Model_Spine2
			{
				OFFSET 0.000000 14.850220 -1.719911
				CHANNELS 3 Xrotation Yrotation Zrotation
				JOINT Model_Neck
				{
					OFFSET 0.000000 16.706543 -1.934903
					CHANNELS 3 Xrotation Yrotation Zrotation
					JOINT Model_Head
					{
						OFFSET 0.000000 10.471298 2.002100
						CHANNELS 3 Xrotation Yrotation Zrotation
						JOINT Model_HeadTop_End
						{
							OFFSET 0.000000 20.842606 3.985100
							CHANNELS 3 Xrotation Yrotation Zrotation
							End Site
							{
								OFFSET 0.000000 21.220154 0.000000
							}
						}
					}
				}
				JOINT Model_LeftShoulder
				{
					OFFSET 7.008500 14.768600 -1.919946
					CHANNELS 3 Xrotation Yrotation Zrotation
					JOINT Model_LeftArm
					{
						OFFSET 14.126271 -3.718048 0.029937
						CHANNELS 3 Xrotation Yrotation Zrotation
						JOINT Model_LeftForeArm
						{
							OFFSET 28.282801 0.000000 0.000000
							CHANNELS 3 Xrotation Yrotation Zrotation
							JOINT Model_LeftHand
							{
								OFFSET 26.204689 0.000000 0.000000
								CHANNELS 3 Xrotation Yrotation Zrotation
								End Site
								{
									OFFSET 26.204704 0.000000 0.000000
								}
							}
						}
					}
				}
				JOINT Model_RightShoulder
				{
					OFFSET -7.008500 14.768555 -1.949840
					CHANNELS 3 Xrotation Yrotation Zrotation
					JOINT Model_RightArm
					{
						OFFSET -14.126281 -3.718018 -0.029932
						CHANNELS 3 Xrotation Yrotation Zrotation
						JOINT Model_RightForeArm
						{
							OFFSET -28.283798 0.000000 -0.000001
							CHANNELS 3 Xrotation Yrotation Zrotation
							JOINT Model_RightHand
							{
								OFFSET -26.204193 0.000000 -0.000001
								CHANNELS 3 Xrotation Yrotation Zrotation
								End Site
								{
									OFFSET -26.204208 0.000000 -0.000001
								}
							}
						}
					}
				}
			}
		}
	}
	JOINT Model_LeftUpLeg
	{
		OFFSET 8.327700 -6.193199 -0.402800
		CHANNELS 3 Xrotation Yrotation Zrotation
		JOINT Model_LeftLeg
		{
			OFFSET 0.735802 -42.108742 -0.610721
			CHANNELS 3 Xrotation Yrotation Zrotation
			JOINT Model_LeftFoot
			{
				OFFSET -0.735806 -36.833748 -0.172876
				CHANNELS 3 Xrotation Yrotation Zrotation
				JOINT Model_LeftToeBase
				{
					OFFSET -0.565857 -11.977769 16.297714
					CHANNELS 3 Xrotation Yrotation Zrotation
					JOINT Model_LeftToe_End
					{
						OFFSET -0.111712 -0.312793 7.857784
						CHANNELS 3 Xrotation Yrotation Zrotation
						End Site
						{
							OFFSET -0.111712 -0.312793 7.857784
						}
					}
				}
			}
		}
	}
	JOINT Model_RightUpLeg
	{
		OFFSET -8.327700 -6.193199 -0.516500
		CHANNELS 3 Xrotation Yrotation Zrotation
		JOINT Model_RightLeg
		{
			OFFSET -0.735785 -42.108738 -0.434061
			CHANNELS 3 Xrotation Yrotation Zrotation
			JOINT Model_RightFoot
			{
				OFFSET 0.735776 -36.833748 -0.021630
				CHANNELS 3 Xrotation Yrotation Zrotation
				JOINT Model_RightToeBase
				{
					OFFSET 0.565817 -11.977745 15.903093
					CHANNELS 3 Xrotation Yrotation Zrotation
					JOINT Model_RightToe_End
					{
						OFFSET 0.111702 -0.312791 7.811342
						CHANNELS 3 Xrotation Yrotation Zrotation
						End Site
						{
							OFFSET 0.111702 -0.312791 7.811342
						}
					}
				}
			}
		}
	}
}
MOTION
Frames: 15
Frame Time: 0.033333
0.370187 97.632675 -0.875546 -5.474583 -4.687353 -1.763928 2.343422 0.186963 0.746620 4.686837 0.416963 1.261558 4.686835 0.416962 1.261559 -6.473682 0.048053 -0.127170 -6.473674 0.048052 -0.127169 -0.000000 -0.000000 -0.000000 12.672982 7.217845 -6.412509 0.810682 -36.515117 -69.772944 -0.000008 -27.887808 -0.000008 -0.000001 0.000001 -0.000000 11.546215 8.398555 -1.489059 -5.154668 20.067699 72.643980 -0.000006 31.316714 -0.000002 0.000002 -0.000002 0.000001 -1.116275 13.690594 1.135892 6.558363 -0.015866 -0.252631 -0.506196 0.702708 1.948553 0.002994 -0.026201 0.062610 0.000000 -0.000001 -0.000000 0.179938 -4.162765 -0.161092 13.302096 0.074727 0.422265 -7.756100 -15.991300 0.681464 -0.020498 -0.187013 0.446698 -0.000000 0.000000 0.000000 
0.391958 97.622169 -0.854250 -5.490664 -4.701904 -1.694471 2.366197 0.187096 0.737502 4.732353 0.417265 1.248902 4.732355 0.417265 1.248901 -6.489907 0.056686 -0.142688 -6.489907 0.056685 -0.142690 0.000000 0.000000 -0.000000 12.675185 7.239874 -6.413580 0.640066 -36.555709 -69.822135 -0.001625 -27.821924 -0.000070 -0.000001 0.000001 -0.000001 11.543459 8.415463 -1.490939 -5.325513 20.152490 72.674265 -0.001386 31.318801 -0.000181 -0.000002 -0.000001 0.000001 -1.155257 13.755604 1.068378 6.756102 -0.002487 -0.257630 -0.732532 0.634069 1.971737 0.003021 -0.026466 0.063270 -0.000000 -0.000000 -0.000000 0.073837 -4.400643 -0.301807 13.581466 0.092338 0.434215 -7.912567 -15.738303 0.703965 -0.020540 -0.187492 0.447833 0.000000 0.000000 0.000000 
0.422854 97.614029 -0.831206 -5.530530 -4.720410 -1.612357 2.406123 0.188817 0.726926 4.812184 0.420834 1.232107 4.812183 0.420833 1.232108 -6.511061 0.063844 -0.155358 -6.511055 0.063845 -0.155359 -0.000000 -0.000000 0.000000 12.677243 7.251549 -6.430560 0.321199 -36.578579 -69.934874 -0.004485 -27.741206 -0.000123 -0.000002 -0.000000 0.000000 11.539384 8.442838 -1.486648 -5.779004 20.329536 72.780590 -0.001917 30.788802 -0.000765 0.000002 -0.000000 0.000001 -1.102925 13.880013 0.963359 6.828462 0.023819 -0.257753 -0.898369 0.493010 2.002463 0.003042 -0.026641 0.063668 0.000000 -0.000000 -0.000000 -0.005077 -4.641786 -0.467589 13.848427 0.116733 0.446083 -8.060202 -15.486585 0.734702 -0.020575 -0.187859 0.448687 0.000000 0.000001 0.000000 
0.462765 97.610519 -0.794507 -5.552280 -4.744748 -1.526088 2.452313 0.195182 0.715236 4.904517 0.433556 1.211563 4.904521 0.433559 1.211563 -6.535984 0.068821 -0.165507 -6.535986 0.068819 -0.165508 -0.000000 -0.000000 -0.000000 12.678084 7.245926 -6.459829 0.164844 -36.541871 -69.923549 -0.007930 -27.668598 -0.000224 0.000001 0.000000 -0.000000 11.534425 8.473004 -1.495374 -6.199647 20.501520 72.876186 -0.003260 30.334421 -0.001243 -0.000000 -0.000000 0.000000 -0.984749 13.923969 0.821056 6.753148 0.056367 -0.252820 -0.986864 0.427944 2.033202 0.003043 -0.026647 0.063699 0.000000 0.000000 -0.000000 -0.065189 -4.849828 -0.637794 14.047391 0.144196 0.455406 -8.175645 -15.270529 0.774487 -0.020588 -0.187947 0.448925 -0.000000 0.000002 0.000000 
0.515555 97.607040 -0.736493 -5.516054 -4.778423 -1.445808 2.491590 0.206780 0.703201 4.983011 0.456529 1.190165 4.983012 0.456528 1.190166 -6.565334 0.072820 -0.175634 -6.565332 0.072822 -0.175633 -0.000000 -0.000000 -0.000000 12.678249 7.239442 -6.480268 0.006063 -36.515735 -69.917081 -0.010954 -27.628947 -0.000293 -0.000003 -0.000001 0.000001 11.529736 8.494720 -1.534292 -6.558430 20.694903 72.970708 -0.004521 29.957322 -0.001571 -0.000000 0.000001 -0.000000 -0.933982 13.824099 0.675774 6.723064 0.082116 -0.249740 -1.116047 0.521601 2.066631 0.003035 -0.026683 0.063751 -0.000000 -0.000002 -0.000000 -0.160911 -5.058553 -0.807028 14.215413 0.169965 0.463177 -8.279397 -15.046531 0.826605 -0.020580 -0.187895 0.448772 0.000000 0.000001 0.000000 
0.584768 97.608025 -0.656870 -5.420168 -4.819273 -1.381110 2.519707 0.220357 0.690639 5.039156 0.483129 1.167825 5.039153 0.483129 1.167824 -6.601839 0.077609 -0.187033 -6.601842 0.077609 -0.187034 0.000000 0.000000 0.000000 12.680274 7.258562 -6.481709 -0.146047 -36.489025 -69.906535 -0.013335 -27.663538 -0.000396 -0.000003 0.000000 -0.000001 11.526260 8.506026 -1.591895 -6.836905 20.929984 73.044399 -0.005542 29.671786 -0.001723 0.000001 0.000001 0.000001 -0.944294 13.600437 0.535653 6.714391 0.099790 -0.247995 -1.291083 0.757140 2.105289 0.003074 -0.026866 0.064185 0.000000 -0.000001 -0.000000 -0.261681 -5.305376 -0.967464 14.284420 0.191118 0.466797 -8.333722 -14.772284 0.895780 -0.020573 -0.187814 0.448582 0.000000 -0.000003 0.000000 
0.670995 97.584595 -0.558267 -5.293961 -4.853004 -1.340178 2.541964 0.231857 0.673955 5.083583 0.505439 1.142404 5.083583 0.505441 1.142405 -6.647002 0.083475 -0.197797 -6.646991 0.083473 -0.197798 0.000000 -0.000000 -0.000000 12.685590 7.311977 -6.480306 -0.284024 -36.451463 -69.884009 -0.015224 -27.716331 -0.000464 -0.000001 0.000000 -0.000000 11.523503 8.513836 -1.644079 -7.050832 21.166293 73.089595 -0.006607 29.479957 -0.001687 0.000002 -0.000001 0.000002 -1.349787 13.305933 0.505305 7.476412 0.080834 -0.273397 -1.913738 1.087349 2.167645 0.003095 -0.027115 0.064791 0.000000 0.000001 0.000000 -0.500192 -5.583007 -1.133642 14.607333 0.206437 0.480079 -8.531326 -14.457115 0.974827 -0.020589 -0.187820 0.448609 -0.000000 0.000003 0.000000 
0.775775 97.541351 -0.440646 -5.167120 -4.858393 -1.328090 2.564506 0.240994 0.653301 5.128567 0.523257 1.110609 5.128565 0.523258 1.110609 -6.698103 0.089008 -0.205647 -6.698100 0.089007 -0.205647 -0.000000 0.000000 0.000000 12.693516 7.380622 -6.500742 -0.401332 -36.393164 -69.842181 -0.017009 -27.790862 -0.000539 0.000000 0.000001 -0.000001 11.521196 8.520401 -1.687872 -7.237120 21.334593 73.133677 -0.007972 29.348869 -0.001485 0.000005 0.000001 -0.000000 -1.968569 12.970563 0.542548 8.695292 0.037971 -0.314800 -2.808694 1.445679 2.252800 0.003104 -0.027159 0.064887 0.000000 0.000000 -0.000000 -0.796010 -5.891550 -1.296031 15.086706 0.216781 0.497850 -8.823667 -14.126066 1.067285 -0.020586 -0.187994 0.449013 0.000001 0.000000 0.000000 
0.899139 97.472672 -0.303107 -5.037788 -4.828078 -1.331075 2.587603 0.251889 0.626671 5.174679 0.544610 1.067091 5.174677 0.544610 1.067091 -6.751879 0.092487 -0.212042 -6.751876 0.092486 -0.212042 0.000000 0.000001 0.000000 12.701193 7.438885 -6.538601 -0.489782 -36.303418 -69.772759 -0.018648 -27.893547 -0.000612 -0.000003 -0.000001 0.000000 11.519784 8.519106 -1.740999 -7.387592 21.414878 73.189814 -0.009537 29.306460 -0.001194 0.000003 -0.000000 0.000001 -2.754319 12.624736 0.618362 10.279434 -0.023086 -0.370206 -3.918642 1.785361 2.364476 0.003064 -0.026835 0.064121 0.000000 -0.000001 -0.000000 -1.184874 -6.232551 -1.476041 15.795081 0.225426 0.523443 -9.250875 -13.791808 1.172339 -0.020640 -0.188392 0.449959 0.000000 -0.000001 0.000000 
1.043722 97.374779 -0.137053 -4.890134 -4.784268 -1.340438 2.606147 0.270057 0.591828 5.211724 0.580321 1.005758 5.211723 0.580320 1.005758 -6.808790 0.093104 -0.219295 -6.808791 0.093102 -0.219295 -0.000000 0.000000 -0.000000 12.706696 7.482669 -6.558486 -0.539705 -36.170851 -69.666359 -0.019688 -28.033357 -0.000690 0.000003 -0.000001 -0.000000 11.519902 8.504724 -1.814788 -7.470544 21.457574 73.241539 -0.010911 29.381643 -0.000771 0.000001 0.000001 0.000001 -3.654413 12.289273 0.704467 12.105389 -0.095658 -0.435692 -5.174505 2.103779 2.503337 0.003006 -0.026321 0.062912 0.000000 -0.000001 0.000000 -1.690474 -6.579911 -1.688048 16.750810 0.236099 0.557555 -9.823946 -13.463875 1.293590 -0.020699 -0.188989 0.451388 0.000000 -0.000002 0.000000 
1.218392 97.254501 0.073746 -4.719369 -4.764561 -1.359038 2.617605 0.298983 0.551668 5.234601 0.637308 0.931355 5.234604 0.637308 0.931356 -6.869543 0.091100 -0.228164 -6.869540 0.091101 -0.228165 -0.000000 0.000000 0.000000 12.711235 7.530302 -6.552149 -0.510152 -35.985487 -69.487257 -0.020571 -28.323285 -0.000779 0.000001 0.000000 -0.000000 11.521613 8.475353 -1.909257 -7.451054 21.505629 73.248923 -0.012298 29.589626 -0.000154 -0.000001 -0.000003 0.000002 -4.564742 11.988933 0.774054 13.975574 -0.169063 -0.504538 -6.470211 2.410975 2.668343 0.002941 -0.025806 0.061649 0.000000 -0.000001 -0.000000 -2.257177 -6.914958 -1.932555 17.835091 0.252476 0.596939 -10.482724 -13.124567 1.442001 -0.020760 -0.189613 0.452884 0.000000 -0.000001 0.000000 
1.430351 97.119835 0.344936 -4.521699 -4.787902 -1.382664 2.621605 0.344285 0.502591 5.242619 0.726569 0.836472 5.242618 0.726571 0.836472 -6.927806 0.087298 -0.237960 -6.927805 0.087297 -0.237960 -0.000000 0.000000 -0.000000 12.718131 7.601052 -6.547766 -0.397209 -35.744917 -69.232362 -0.021251 -28.768453 -0.000842 0.000000 0.000001 -0.000001 11.525204 8.431563 -2.009823 -7.347524 21.552855 73.212620 -0.013285 29.851540 0.000617 0.000002 -0.000001 0.000001 -5.414427 11.749201 0.808483 15.761551 -0.234926 -0.572611 -7.731153 2.698053 2.847391 0.002857 -0.025127 0.060049 0.000000 -0.000000 -0.000000 -2.835056 -7.242071 -2.218101 18.945850 0.277720 0.641290 -11.178510 -12.749211 1.626310 -0.113721 -0.186433 0.446146 0.000000 0.000000 0.000000 
1.682675 97.043503 0.733509 -4.287932 -4.846886 -1.403824 2.609819 0.392353 0.450260 5.219180 0.820785 0.732855 5.219180 0.820786 0.732854 -6.973348 0.082635 -0.246948 -6.973341 0.082636 -0.246948 -0.000000 0.000000 -0.000000 12.728310 7.696640 -6.556141 -0.245840 -35.448586 -68.940364 -0.020834 -29.217808 -0.001016 0.000003 0.000002 -0.000001 11.531270 8.374914 -2.094365 -7.357349 21.575408 73.226520 -0.011631 29.707242 0.001229 0.000000 0.000000 -0.000000 -5.815791 11.541954 0.706438 16.723264 -0.251980 -0.609766 -8.622766 2.957540 3.044379 -0.120530 -0.026384 0.062892 0.000000 0.000000 -0.000000 -3.077032 -7.529186 -2.491322 19.408307 0.314595 0.661516 -11.584873 -12.404679 1.870331 -0.122450 -0.186383 0.446093 0.000000 0.000001 0.000000 
1.973966 96.967674 1.216323 -4.004650 -4.919288 -1.411132 2.579691 0.437427 0.392910 5.159197 0.908751 0.619663 5.159196 0.908749 0.619664 -7.003079 0.077399 -0.255335 -7.003080 0.077397 -0.255336 0.000001 -0.000000 -0.000000 12.739081 7.799808 -6.564690 -0.102463 -35.096575 -68.650867 -0.018745 -29.517506 -0.001227 -0.000001 -0.000001 0.000000 11.539955 8.300390 -2.172471 -7.294976 21.430659 73.220174 -0.008847 29.639322 0.001939 -0.000000 -0.000000 0.000001 -6.139411 11.380232 0.551212 17.567650 -0.252064 -0.643036 -9.486302 3.167407 3.247919 -0.178679 -0.026467 0.063024 0.000001 0.000000 -0.000000 -3.272867 -7.633746 -2.776500 19.793887 0.368352 0.679831 -11.999248 -12.249778 2.152462 -0.140274 -0.186275 0.445992 0.000000 0.000001 0.000000 
2.302597 96.906609 1.786537 -3.675464 -4.989020 -1.395751 2.536388 0.476061 0.331015 5.072973 0.983557 0.498427 5.072971 0.983558 0.498427 -7.022960 0.071242 -0.264735 -7.022953 0.071242 -0.264735 -0.000000 -0.000000 -0.000000 12.748651 7.888164 -6.574610 -0.015802 -34.689919 -68.405110 -0.014989 -29.510235 -0.001592 -0.000001 0.000001 0.000000 11.551887 8.197871 -2.285087 -7.158257 21.107231 73.208105 -0.005837 29.726462 0.002909 0.000001 -0.000001 0.000002 -6.315513 11.219012 0.310863 18.148052 -0.226360 -0.665196 -10.257897 3.346450 3.463939 -0.228252 -0.026549 0.063136 0.000000 -0.000001 -0.000000 -3.355926 -7.440233 -3.045402 19.976954 0.442064 0.690637 -12.353072 -12.439107 2.466217 -0.193128 -0.185952 0.445678 0.000000 -0.000002 0.000000 
